<svg xmlns="http://www.w3.org/2000/svg" viewBox="0 0 200 40" fill="none">
  <!-- Reelzak wordmark — pure monochrome -->
  <g transform="translate(4,4)">
    <rect x="0" y="0" width="32" height="32" rx="6" fill="#ffffff" opacity="0.06"/>
    <rect x="0.5" y="0.5" width="31" height="31" rx="5.5" stroke="#ffffff" stroke-width="1" opacity="0.18"/>
    <path d="M8 8 L8 24 L14 24 L14 18 L18 18 L22 24 L29 24 L23.5 16.5 C25.5 15.5 26.5 13.5 26.5 11 C26.5 8.5 24.5 8 21 8 L8 8 Z M14 13 L20 13 C21.5 13 22 13.5 22 14.5 C22 15.5 21.5 16 20 16 L14 16 L14 13 Z" fill="#ffffff"/>
  </g>
  <text x="46" y="27" font-family="'Space Grotesk', 'Inter', sans-serif" font-weight="600" font-size="22" letter-spacing="-0.04em" fill="#ffffff">Reelzak</text>
</svg>
